<mxfile host="app.diagrams.net" agent="Mozilla/5.0 (Windows NT 10.0; Win64; x64) AppleWebKit/537.36 (KHTML, like Gecko) Chrome/138.0.0.0 Safari/537.36" version="28.0.7">
  <diagram name="Page-1" id="gamRS6MLA4fs2B-uqD5Q">
    <mxGraphModel grid="1" page="1" gridSize="10" guides="1" tooltips="1" connect="1" arrows="1" fold="1" pageScale="1" pageWidth="850" pageHeight="1100" math="0" shadow="0">
      <root>
        <mxCell id="0" />
        <mxCell id="1" parent="0" />
        <mxCell id="cbwaQ1HPOLXVcCFHKxyQ-42" style="edgeStyle=orthogonalEdgeStyle;rounded=0;orthogonalLoop=1;jettySize=auto;html=1;exitX=0.5;exitY=1;exitDx=0;exitDy=0;entryX=0.5;entryY=0;entryDx=0;entryDy=0;" edge="1" parent="1" source="sVo8eWBov2D_V9g_eI1e-1" target="sVo8eWBov2D_V9g_eI1e-2">
          <mxGeometry relative="1" as="geometry" />
        </mxCell>
        <mxCell id="sVo8eWBov2D_V9g_eI1e-1" value="Inicio" style="rounded=1;whiteSpace=wrap;html=1;" vertex="1" parent="1">
          <mxGeometry x="280" y="80" width="80" height="30" as="geometry" />
        </mxCell>
        <mxCell id="Z0tMkrNwUrv3ZhMJwio2-3" style="edgeStyle=orthogonalEdgeStyle;rounded=0;orthogonalLoop=1;jettySize=auto;html=1;exitX=0.5;exitY=1;exitDx=0;exitDy=0;entryX=0.5;entryY=0;entryDx=0;entryDy=0;" edge="1" parent="1" source="sVo8eWBov2D_V9g_eI1e-2" target="Z0tMkrNwUrv3ZhMJwio2-2">
          <mxGeometry relative="1" as="geometry" />
        </mxCell>
        <mxCell id="sVo8eWBov2D_V9g_eI1e-2" value="Crear el tablero de juego (3x3)" style="rounded=0;whiteSpace=wrap;html=1;" vertex="1" parent="1">
          <mxGeometry x="215" y="134" width="210" height="40" as="geometry" />
        </mxCell>
        <mxCell id="sVo8eWBov2D_V9g_eI1e-14" value="&lt;span style=&quot;font-size: 20px;&quot;&gt;&lt;b&gt;Tres en linea&lt;/b&gt;&lt;/span&gt;" style="text;html=1;align=center;verticalAlign=middle;whiteSpace=wrap;rounded=0;" vertex="1" parent="1">
          <mxGeometry x="20" y="40" width="240" height="30" as="geometry" />
        </mxCell>
        <mxCell id="Z0tMkrNwUrv3ZhMJwio2-7" style="edgeStyle=orthogonalEdgeStyle;rounded=0;orthogonalLoop=1;jettySize=auto;html=1;exitX=0.5;exitY=1;exitDx=0;exitDy=0;entryX=0.5;entryY=0;entryDx=0;entryDy=0;" edge="1" parent="1" source="Z0tMkrNwUrv3ZhMJwio2-2" target="Z0tMkrNwUrv3ZhMJwio2-5">
          <mxGeometry relative="1" as="geometry" />
        </mxCell>
        <mxCell id="Z0tMkrNwUrv3ZhMJwio2-2" value="Se inicia turno a 0" style="rounded=0;whiteSpace=wrap;html=1;" vertex="1" parent="1">
          <mxGeometry x="215" y="200" width="210" height="40" as="geometry" />
        </mxCell>
        <mxCell id="Z0tMkrNwUrv3ZhMJwio2-48" style="edgeStyle=orthogonalEdgeStyle;rounded=0;orthogonalLoop=1;jettySize=auto;html=1;exitX=0.5;exitY=1;exitDx=0;exitDy=0;entryX=0.5;entryY=0;entryDx=0;entryDy=0;" edge="1" parent="1" source="Z0tMkrNwUrv3ZhMJwio2-5" target="Z0tMkrNwUrv3ZhMJwio2-18">
          <mxGeometry relative="1" as="geometry" />
        </mxCell>
        <mxCell id="Z0tMkrNwUrv3ZhMJwio2-5" value="Se dibuja el tablero" style="rounded=0;whiteSpace=wrap;html=1;" vertex="1" parent="1">
          <mxGeometry x="215" y="280" width="210" height="40" as="geometry" />
        </mxCell>
        <mxCell id="Z0tMkrNwUrv3ZhMJwio2-14" style="edgeStyle=orthogonalEdgeStyle;rounded=0;orthogonalLoop=1;jettySize=auto;html=1;exitX=0.5;exitY=1;exitDx=0;exitDy=0;entryX=0.5;entryY=0;entryDx=0;entryDy=0;" edge="1" parent="1" source="Z0tMkrNwUrv3ZhMJwio2-11" target="Z0tMkrNwUrv3ZhMJwio2-13">
          <mxGeometry relative="1" as="geometry" />
        </mxCell>
        <mxCell id="Z0tMkrNwUrv3ZhMJwio2-11" value="Mostrar ganador" style="rounded=0;whiteSpace=wrap;html=1;" vertex="1" parent="1">
          <mxGeometry x="101.75" y="568" width="116.5" height="40" as="geometry" />
        </mxCell>
        <mxCell id="Z0tMkrNwUrv3ZhMJwio2-13" value="Fin" style="rounded=1;whiteSpace=wrap;html=1;" vertex="1" parent="1">
          <mxGeometry x="120" y="940" width="80" height="30" as="geometry" />
        </mxCell>
        <mxCell id="Z0tMkrNwUrv3ZhMJwio2-46" style="edgeStyle=orthogonalEdgeStyle;rounded=0;orthogonalLoop=1;jettySize=auto;html=1;exitX=0;exitY=0.5;exitDx=0;exitDy=0;entryX=0.5;entryY=1;entryDx=0;entryDy=0;" edge="1" parent="1" source="Z0tMkrNwUrv3ZhMJwio2-15" target="Z0tMkrNwUrv3ZhMJwio2-44">
          <mxGeometry relative="1" as="geometry" />
        </mxCell>
        <mxCell id="Z0tMkrNwUrv3ZhMJwio2-47" value="No" style="edgeLabel;html=1;align=center;verticalAlign=middle;resizable=0;points=[];" connectable="0" vertex="1" parent="Z0tMkrNwUrv3ZhMJwio2-46">
          <mxGeometry x="-0.711" y="1" relative="1" as="geometry">
            <mxPoint x="7" y="-12" as="offset" />
          </mxGeometry>
        </mxCell>
        <mxCell id="Z0tMkrNwUrv3ZhMJwio2-50" style="edgeStyle=orthogonalEdgeStyle;rounded=0;orthogonalLoop=1;jettySize=auto;html=1;exitX=0.5;exitY=1;exitDx=0;exitDy=0;entryX=0.5;entryY=0;entryDx=0;entryDy=0;" edge="1" parent="1" source="Z0tMkrNwUrv3ZhMJwio2-15" target="Z0tMkrNwUrv3ZhMJwio2-49">
          <mxGeometry relative="1" as="geometry" />
        </mxCell>
        <mxCell id="Z0tMkrNwUrv3ZhMJwio2-58" value="Si" style="edgeLabel;html=1;align=center;verticalAlign=middle;resizable=0;points=[];" connectable="0" vertex="1" parent="Z0tMkrNwUrv3ZhMJwio2-50">
          <mxGeometry x="-0.15" y="4" relative="1" as="geometry">
            <mxPoint x="8" y="-21" as="offset" />
          </mxGeometry>
        </mxCell>
        <mxCell id="Z0tMkrNwUrv3ZhMJwio2-15" value="¿Posción de&amp;nbsp;&lt;div&gt;colocación vacía?&lt;/div&gt;" style="rhombus;whiteSpace=wrap;html=1;" vertex="1" parent="1">
          <mxGeometry x="371.63" y="819" width="133.25" height="105" as="geometry" />
        </mxCell>
        <mxCell id="Z0tMkrNwUrv3ZhMJwio2-21" style="edgeStyle=orthogonalEdgeStyle;rounded=0;orthogonalLoop=1;jettySize=auto;html=1;exitX=1;exitY=0.5;exitDx=0;exitDy=0;entryX=0.5;entryY=0;entryDx=0;entryDy=0;" edge="1" parent="1" source="Z0tMkrNwUrv3ZhMJwio2-18" target="Z0tMkrNwUrv3ZhMJwio2-20">
          <mxGeometry relative="1" as="geometry" />
        </mxCell>
        <mxCell id="Z0tMkrNwUrv3ZhMJwio2-66" value="Si" style="edgeLabel;html=1;align=center;verticalAlign=middle;resizable=0;points=[];" connectable="0" vertex="1" parent="Z0tMkrNwUrv3ZhMJwio2-21">
          <mxGeometry x="-0.7049" y="2" relative="1" as="geometry">
            <mxPoint x="-22" y="-13" as="offset" />
          </mxGeometry>
        </mxCell>
        <mxCell id="Z0tMkrNwUrv3ZhMJwio2-22" style="edgeStyle=orthogonalEdgeStyle;rounded=0;orthogonalLoop=1;jettySize=auto;html=1;exitX=0;exitY=0.5;exitDx=0;exitDy=0;entryX=0.5;entryY=0;entryDx=0;entryDy=0;" edge="1" parent="1" source="Z0tMkrNwUrv3ZhMJwio2-18" target="Z0tMkrNwUrv3ZhMJwio2-19">
          <mxGeometry relative="1" as="geometry" />
        </mxCell>
        <mxCell id="Z0tMkrNwUrv3ZhMJwio2-23" value="No" style="edgeLabel;html=1;align=center;verticalAlign=middle;resizable=0;points=[];" connectable="0" vertex="1" parent="Z0tMkrNwUrv3ZhMJwio2-22">
          <mxGeometry x="-0.6533" y="-2" relative="1" as="geometry">
            <mxPoint x="9" y="-13" as="offset" />
          </mxGeometry>
        </mxCell>
        <mxCell id="Z0tMkrNwUrv3ZhMJwio2-18" value="¿Turno &amp;lt;9?" style="rhombus;whiteSpace=wrap;html=1;" vertex="1" parent="1">
          <mxGeometry x="265" y="350" width="110" height="90" as="geometry" />
        </mxCell>
        <mxCell id="Z0tMkrNwUrv3ZhMJwio2-24" style="edgeStyle=orthogonalEdgeStyle;rounded=0;orthogonalLoop=1;jettySize=auto;html=1;exitX=0.5;exitY=1;exitDx=0;exitDy=0;entryX=0.5;entryY=0;entryDx=0;entryDy=0;" edge="1" parent="1" source="Z0tMkrNwUrv3ZhMJwio2-19" target="Z0tMkrNwUrv3ZhMJwio2-11">
          <mxGeometry relative="1" as="geometry" />
        </mxCell>
        <mxCell id="Z0tMkrNwUrv3ZhMJwio2-25" value="Si" style="edgeLabel;html=1;align=center;verticalAlign=middle;resizable=0;points=[];" connectable="0" vertex="1" parent="Z0tMkrNwUrv3ZhMJwio2-24">
          <mxGeometry x="-0.2667" y="1" relative="1" as="geometry">
            <mxPoint x="-11" y="-8" as="offset" />
          </mxGeometry>
        </mxCell>
        <mxCell id="Z0tMkrNwUrv3ZhMJwio2-28" style="edgeStyle=orthogonalEdgeStyle;rounded=0;orthogonalLoop=1;jettySize=auto;html=1;exitX=1;exitY=0.5;exitDx=0;exitDy=0;entryX=0.5;entryY=0;entryDx=0;entryDy=0;" edge="1" parent="1" source="Z0tMkrNwUrv3ZhMJwio2-19" target="Z0tMkrNwUrv3ZhMJwio2-26">
          <mxGeometry relative="1" as="geometry" />
        </mxCell>
        <mxCell id="Z0tMkrNwUrv3ZhMJwio2-29" value="No" style="edgeLabel;html=1;align=center;verticalAlign=middle;resizable=0;points=[];" connectable="0" vertex="1" parent="Z0tMkrNwUrv3ZhMJwio2-28">
          <mxGeometry x="-0.757" relative="1" as="geometry">
            <mxPoint x="-3" y="-13" as="offset" />
          </mxGeometry>
        </mxCell>
        <mxCell id="Z0tMkrNwUrv3ZhMJwio2-19" value="¿Hay ganardor?" style="rhombus;whiteSpace=wrap;html=1;" vertex="1" parent="1">
          <mxGeometry x="105" y="428" width="110" height="90" as="geometry" />
        </mxCell>
        <mxCell id="Z0tMkrNwUrv3ZhMJwio2-32" style="edgeStyle=orthogonalEdgeStyle;rounded=0;orthogonalLoop=1;jettySize=auto;html=1;exitX=0;exitY=0.5;exitDx=0;exitDy=0;entryX=0.5;entryY=0;entryDx=0;entryDy=0;" edge="1" parent="1" source="Z0tMkrNwUrv3ZhMJwio2-20" target="Z0tMkrNwUrv3ZhMJwio2-31">
          <mxGeometry relative="1" as="geometry" />
        </mxCell>
        <mxCell id="Z0tMkrNwUrv3ZhMJwio2-34" value="Si" style="edgeLabel;html=1;align=center;verticalAlign=middle;resizable=0;points=[];" connectable="0" vertex="1" parent="Z0tMkrNwUrv3ZhMJwio2-32">
          <mxGeometry x="-0.6718" y="2" relative="1" as="geometry">
            <mxPoint x="8" y="-15" as="offset" />
          </mxGeometry>
        </mxCell>
        <mxCell id="Z0tMkrNwUrv3ZhMJwio2-63" style="edgeStyle=orthogonalEdgeStyle;rounded=0;orthogonalLoop=1;jettySize=auto;html=1;exitX=0.5;exitY=1;exitDx=0;exitDy=0;entryX=0.5;entryY=0;entryDx=0;entryDy=0;" edge="1" parent="1" source="Z0tMkrNwUrv3ZhMJwio2-20" target="Z0tMkrNwUrv3ZhMJwio2-35">
          <mxGeometry relative="1" as="geometry" />
        </mxCell>
        <mxCell id="Z0tMkrNwUrv3ZhMJwio2-64" value="No" style="edgeLabel;html=1;align=center;verticalAlign=middle;resizable=0;points=[];" connectable="0" vertex="1" parent="Z0tMkrNwUrv3ZhMJwio2-63">
          <mxGeometry x="-0.8391" relative="1" as="geometry">
            <mxPoint x="15" as="offset" />
          </mxGeometry>
        </mxCell>
        <mxCell id="Z0tMkrNwUrv3ZhMJwio2-20" value="¿Hay ganardor?" style="rhombus;whiteSpace=wrap;html=1;" vertex="1" parent="1">
          <mxGeometry x="470" y="428" width="110" height="90" as="geometry" />
        </mxCell>
        <mxCell id="Z0tMkrNwUrv3ZhMJwio2-30" style="edgeStyle=orthogonalEdgeStyle;rounded=0;orthogonalLoop=1;jettySize=auto;html=1;exitX=0.5;exitY=1;exitDx=0;exitDy=0;" edge="1" parent="1" source="Z0tMkrNwUrv3ZhMJwio2-26">
          <mxGeometry relative="1" as="geometry">
            <mxPoint x="160" y="638" as="targetPoint" />
            <Array as="points">
              <mxPoint x="287" y="638" />
            </Array>
          </mxGeometry>
        </mxCell>
        <mxCell id="Z0tMkrNwUrv3ZhMJwio2-26" value="Mostrar empate" style="rounded=0;whiteSpace=wrap;html=1;" vertex="1" parent="1">
          <mxGeometry x="247" y="508" width="80" height="40" as="geometry" />
        </mxCell>
        <mxCell id="Z0tMkrNwUrv3ZhMJwio2-33" style="edgeStyle=orthogonalEdgeStyle;rounded=0;orthogonalLoop=1;jettySize=auto;html=1;exitX=0.5;exitY=1;exitDx=0;exitDy=0;" edge="1" parent="1" source="Z0tMkrNwUrv3ZhMJwio2-31">
          <mxGeometry relative="1" as="geometry">
            <mxPoint x="160" y="658" as="targetPoint" />
            <Array as="points">
              <mxPoint x="425" y="658" />
            </Array>
          </mxGeometry>
        </mxCell>
        <mxCell id="Z0tMkrNwUrv3ZhMJwio2-31" value="Mostrar ganador" style="rounded=0;whiteSpace=wrap;html=1;" vertex="1" parent="1">
          <mxGeometry x="390" y="538" width="70" height="40" as="geometry" />
        </mxCell>
        <mxCell id="Z0tMkrNwUrv3ZhMJwio2-39" style="edgeStyle=orthogonalEdgeStyle;rounded=0;orthogonalLoop=1;jettySize=auto;html=1;exitX=0;exitY=0.5;exitDx=0;exitDy=0;entryX=0.5;entryY=0;entryDx=0;entryDy=0;" edge="1" parent="1" source="Z0tMkrNwUrv3ZhMJwio2-35" target="Z0tMkrNwUrv3ZhMJwio2-37">
          <mxGeometry relative="1" as="geometry" />
        </mxCell>
        <mxCell id="Z0tMkrNwUrv3ZhMJwio2-40" value="Si" style="edgeLabel;html=1;align=center;verticalAlign=middle;resizable=0;points=[];" connectable="0" vertex="1" parent="Z0tMkrNwUrv3ZhMJwio2-39">
          <mxGeometry x="-0.7165" y="1" relative="1" as="geometry">
            <mxPoint x="3" y="-13" as="offset" />
          </mxGeometry>
        </mxCell>
        <mxCell id="Z0tMkrNwUrv3ZhMJwio2-41" style="edgeStyle=orthogonalEdgeStyle;rounded=0;orthogonalLoop=1;jettySize=auto;html=1;exitX=1;exitY=0.5;exitDx=0;exitDy=0;entryX=0.5;entryY=0;entryDx=0;entryDy=0;" edge="1" parent="1" source="Z0tMkrNwUrv3ZhMJwio2-35" target="Z0tMkrNwUrv3ZhMJwio2-38">
          <mxGeometry relative="1" as="geometry" />
        </mxCell>
        <mxCell id="Z0tMkrNwUrv3ZhMJwio2-42" value="No" style="edgeLabel;html=1;align=center;verticalAlign=middle;resizable=0;points=[];" connectable="0" vertex="1" parent="Z0tMkrNwUrv3ZhMJwio2-41">
          <mxGeometry x="-0.5014" y="1" relative="1" as="geometry">
            <mxPoint x="-17" y="-11" as="offset" />
          </mxGeometry>
        </mxCell>
        <mxCell id="Z0tMkrNwUrv3ZhMJwio2-35" value="¿Es turno del primer jugador?" style="rhombus;whiteSpace=wrap;html=1;" vertex="1" parent="1">
          <mxGeometry x="470" y="647" width="110" height="90" as="geometry" />
        </mxCell>
        <mxCell id="Z0tMkrNwUrv3ZhMJwio2-43" style="edgeStyle=orthogonalEdgeStyle;rounded=0;orthogonalLoop=1;jettySize=auto;html=1;exitX=0.5;exitY=1;exitDx=0;exitDy=0;entryX=0.5;entryY=0;entryDx=0;entryDy=0;" edge="1" parent="1" source="Z0tMkrNwUrv3ZhMJwio2-37" target="Z0tMkrNwUrv3ZhMJwio2-15">
          <mxGeometry relative="1" as="geometry" />
        </mxCell>
        <mxCell id="Z0tMkrNwUrv3ZhMJwio2-37" value="primer jugador coloca su simbolo" style="rounded=0;whiteSpace=wrap;html=1;" vertex="1" parent="1">
          <mxGeometry x="380" y="752" width="116.5" height="40" as="geometry" />
        </mxCell>
        <mxCell id="Z0tMkrNwUrv3ZhMJwio2-53" style="edgeStyle=orthogonalEdgeStyle;rounded=0;orthogonalLoop=1;jettySize=auto;html=1;exitX=0.5;exitY=1;exitDx=0;exitDy=0;entryX=0.5;entryY=0;entryDx=0;entryDy=0;" edge="1" parent="1" source="Z0tMkrNwUrv3ZhMJwio2-38" target="Z0tMkrNwUrv3ZhMJwio2-52">
          <mxGeometry relative="1" as="geometry" />
        </mxCell>
        <mxCell id="Z0tMkrNwUrv3ZhMJwio2-38" value="segundo jugador coloca su simbolo" style="rounded=0;whiteSpace=wrap;html=1;" vertex="1" parent="1">
          <mxGeometry x="570" y="752" width="116.5" height="40" as="geometry" />
        </mxCell>
        <mxCell id="Z0tMkrNwUrv3ZhMJwio2-45" style="edgeStyle=orthogonalEdgeStyle;rounded=0;orthogonalLoop=1;jettySize=auto;html=1;exitX=0.5;exitY=0;exitDx=0;exitDy=0;" edge="1" parent="1" source="Z0tMkrNwUrv3ZhMJwio2-44">
          <mxGeometry relative="1" as="geometry">
            <mxPoint x="440" y="717" as="targetPoint" />
            <Array as="points">
              <mxPoint x="283" y="717" />
            </Array>
          </mxGeometry>
        </mxCell>
        <mxCell id="Z0tMkrNwUrv3ZhMJwio2-44" value="primer jugador vuelve a colocar" style="rounded=0;whiteSpace=wrap;html=1;" vertex="1" parent="1">
          <mxGeometry x="225" y="787" width="116.5" height="40" as="geometry" />
        </mxCell>
        <mxCell id="Z0tMkrNwUrv3ZhMJwio2-65" style="edgeStyle=orthogonalEdgeStyle;rounded=0;orthogonalLoop=1;jettySize=auto;html=1;exitX=0.5;exitY=1;exitDx=0;exitDy=0;" edge="1" parent="1" source="Z0tMkrNwUrv3ZhMJwio2-49">
          <mxGeometry relative="1" as="geometry">
            <mxPoint x="320" y="250" as="targetPoint" />
            <mxPoint x="178.26" y="1103" as="sourcePoint" />
            <Array as="points">
              <mxPoint x="438" y="1016" />
              <mxPoint x="438" y="1040" />
              <mxPoint x="60" y="1040" />
              <mxPoint x="60" y="250" />
            </Array>
          </mxGeometry>
        </mxCell>
        <mxCell id="Z0tMkrNwUrv3ZhMJwio2-49" value="- Actualiza tablero de juego.&lt;div&gt;- Pasa al siguiente turno&lt;/div&gt;" style="rounded=0;whiteSpace=wrap;html=1;" vertex="1" parent="1">
          <mxGeometry x="309" y="976" width="260" height="40" as="geometry" />
        </mxCell>
        <mxCell id="Z0tMkrNwUrv3ZhMJwio2-55" style="edgeStyle=orthogonalEdgeStyle;rounded=0;orthogonalLoop=1;jettySize=auto;html=1;exitX=1;exitY=0.5;exitDx=0;exitDy=0;entryX=0.5;entryY=1;entryDx=0;entryDy=0;" edge="1" parent="1" source="Z0tMkrNwUrv3ZhMJwio2-52" target="Z0tMkrNwUrv3ZhMJwio2-54">
          <mxGeometry relative="1" as="geometry" />
        </mxCell>
        <mxCell id="Z0tMkrNwUrv3ZhMJwio2-56" value="No" style="edgeLabel;html=1;align=center;verticalAlign=middle;resizable=0;points=[];" connectable="0" vertex="1" parent="Z0tMkrNwUrv3ZhMJwio2-55">
          <mxGeometry x="-0.3149" y="-1" relative="1" as="geometry">
            <mxPoint x="-31" y="17" as="offset" />
          </mxGeometry>
        </mxCell>
        <mxCell id="Z0tMkrNwUrv3ZhMJwio2-61" style="edgeStyle=orthogonalEdgeStyle;rounded=0;orthogonalLoop=1;jettySize=auto;html=1;exitX=0.5;exitY=1;exitDx=0;exitDy=0;" edge="1" parent="1" source="Z0tMkrNwUrv3ZhMJwio2-52">
          <mxGeometry relative="1" as="geometry">
            <mxPoint x="440" y="948" as="targetPoint" />
            <Array as="points">
              <mxPoint x="628" y="948" />
              <mxPoint x="440" y="948" />
            </Array>
          </mxGeometry>
        </mxCell>
        <mxCell id="Z0tMkrNwUrv3ZhMJwio2-62" value="Si" style="edgeLabel;html=1;align=center;verticalAlign=middle;resizable=0;points=[];" connectable="0" vertex="1" parent="Z0tMkrNwUrv3ZhMJwio2-61">
          <mxGeometry x="-0.8626" relative="1" as="geometry">
            <mxPoint x="12" y="-14" as="offset" />
          </mxGeometry>
        </mxCell>
        <mxCell id="Z0tMkrNwUrv3ZhMJwio2-52" value="¿Posción de&amp;nbsp;&lt;div&gt;colocación vacía?&lt;/div&gt;" style="rhombus;whiteSpace=wrap;html=1;" vertex="1" parent="1">
          <mxGeometry x="561.63" y="820" width="133.25" height="105" as="geometry" />
        </mxCell>
        <mxCell id="Z0tMkrNwUrv3ZhMJwio2-57" style="edgeStyle=orthogonalEdgeStyle;rounded=0;orthogonalLoop=1;jettySize=auto;html=1;exitX=0.5;exitY=0;exitDx=0;exitDy=0;" edge="1" parent="1" source="Z0tMkrNwUrv3ZhMJwio2-54">
          <mxGeometry relative="1" as="geometry">
            <mxPoint x="630" y="717" as="targetPoint" />
            <Array as="points">
              <mxPoint x="760" y="792" />
              <mxPoint x="760" y="717" />
            </Array>
          </mxGeometry>
        </mxCell>
        <mxCell id="Z0tMkrNwUrv3ZhMJwio2-54" value="segundo jugador vuelve a colocar" style="rounded=0;whiteSpace=wrap;html=1;" vertex="1" parent="1">
          <mxGeometry x="707" y="792" width="116.5" height="45" as="geometry" />
        </mxCell>
      </root>
    </mxGraphModel>
  </diagram>
</mxfile>
